<svg width="150" height="150" viewBox="0 0 150 150" fill="none" xmlns="http://www.w3.org/2000/svg">
<circle cx="75" cy="75" r="75" fill="#B4B4B4"/>
<path d="M119.316 31H30.3664C26.316 31 23.0206 34.2946 23.0206 38.345L23 98.9475C23 102.997 26.2938 106.305 30.3442 106.305H59.446V113.592H53.7631C53.3161 113.592 52.9678 113.973 52.9678 114.42V117.616C52.9678 118.063 53.3153 118.452 53.7631 118.452H95.7487C96.1941 118.452 96.6922 118.063 96.6922 117.616V114.42C96.6922 113.973 96.1941 113.592 95.7487 113.592H90.214V106.305H119.296C123.343 106.305 126.641 102.997 126.641 98.9475L126.66 38.3516C126.661 34.3004 123.366 31 119.316 31ZM74.7287 100.595C73.386 100.595 72.2993 99.5073 72.2993 98.1655C72.2993 96.8244 73.386 95.7369 74.7287 95.7369C76.0706 95.7369 77.1581 96.8244 77.1581 98.1655C77.1581 99.5073 76.0715 100.595 74.7287 100.595ZM120.174 90.11H29.4855V37.4773H120.174V90.11Z" fill="black"/>
</svg>
