<svg width="278" height="105" viewBox="0 0 278 105" fill="none" xmlns="http://www.w3.org/2000/svg">
<path d="M36.6663 24.8671H0V32.3341H14.6663V77.1319H22V32.3341H36.6663V24.8671Z" fill="#E5E5E5"/>
<path d="M88 21.1341V13.6671C83.5956 13.6671 79.6884 15.6875 77 18.8191C74.3116 15.6875 70.4044 13.6671 66 13.6671V21.1341C70.0502 21.1341 73.3337 24.4762 73.3337 28.6V73.4C73.3337 77.5194 70.0502 80.8659 66 80.8659V88.3319C70.4044 88.3319 74.3116 86.3125 77 83.1843C79.6884 86.3125 83.5956 88.3319 88 88.3319V80.8659C83.9498 80.8659 80.6663 77.5261 80.6663 73.4V28.6C80.6663 24.4773 83.9498 21.1341 88 21.1341Z" fill="#E5E5E5"/>
<path d="M57.5916 68.5717C56.9261 69.2493 56.0098 69.6659 55 69.6659C52.9771 69.6659 51.3337 67.9971 51.3337 65.9319V51H58.6663V43.5341H51.3337V32.3341H44V43.5341H36.6663V51H44V65.9319C44 72.1154 48.9269 77.1319 55 77.1319C58.0371 77.1319 60.7871 75.8786 62.777 73.8503L57.5916 68.5717Z" fill="#E5E5E5"/>
<path d="M137.07 37H130.41V11.1328H121.881V5.58984H145.6V11.1328H137.07V37ZM161.185 17.1914C159.796 17.1914 158.707 17.6354 157.92 18.5234C157.132 19.3971 156.681 20.6432 156.566 22.2617H165.761C165.733 20.6432 165.31 19.3971 164.494 18.5234C163.677 17.6354 162.575 17.1914 161.185 17.1914ZM162.109 37.4297C158.242 37.4297 155.22 36.3626 153.043 34.2285C150.866 32.0944 149.777 29.0723 149.777 25.1621C149.777 21.1374 150.78 18.0293 152.785 15.8379C154.804 13.6322 157.59 12.5293 161.142 12.5293C164.537 12.5293 167.179 13.4961 169.07 15.4297C170.961 17.3633 171.906 20.0345 171.906 23.4434V26.623H156.416C156.487 28.485 157.039 29.9388 158.07 30.9844C159.101 32.0299 160.548 32.5527 162.41 32.5527C163.856 32.5527 165.224 32.4023 166.513 32.1016C167.802 31.8008 169.149 31.321 170.552 30.6621V35.7324C169.407 36.3053 168.182 36.7279 166.879 37C165.575 37.2865 163.985 37.4297 162.109 37.4297ZM183.474 24.7324L175.74 12.9805H183.173L187.835 20.6289L192.54 12.9805H199.974L192.154 24.7324L200.339 37H192.884L187.835 28.7715L182.765 37H175.331L183.474 24.7324ZM215.431 32.209C216.577 32.209 217.952 31.9583 219.556 31.457V36.334C217.923 37.0645 215.918 37.4297 213.54 37.4297C210.919 37.4297 209.007 36.7708 207.804 35.4531C206.615 34.1211 206.021 32.1302 206.021 29.4805V17.9004H202.884V15.1289L206.493 12.9375L208.384 7.86719H212.573V12.9805H219.298V17.9004H212.573V29.4805C212.573 30.4115 212.831 31.099 213.347 31.543C213.877 31.987 214.571 32.209 215.431 32.209ZM143.043 77H124.953V45.5898H143.043V51.0469H131.613V57.9434H142.248V63.4004H131.613V71.5H143.043V77ZM158.027 77.4297C155.205 77.4297 152.985 76.334 151.367 74.1426C149.763 71.9512 148.961 68.9147 148.961 65.0332C148.961 61.0944 149.777 58.0293 151.41 55.8379C153.057 53.6322 155.32 52.5293 158.199 52.5293C161.221 52.5293 163.527 53.7038 165.117 56.0527H165.332C165.002 54.2624 164.838 52.6654 164.838 51.2617V43.5703H171.412V77H166.384L165.117 73.8848H164.838C163.348 76.248 161.078 77.4297 158.027 77.4297ZM160.326 72.209C162.002 72.209 163.226 71.722 164 70.748C164.787 69.7741 165.217 68.1198 165.289 65.7852V65.0762C165.289 62.498 164.888 60.6504 164.086 59.5332C163.298 58.416 162.009 57.8574 160.218 57.8574C158.757 57.8574 157.619 58.4805 156.802 59.7266C156 60.9583 155.599 62.7559 155.599 65.1191C155.599 67.4824 156.007 69.2585 156.824 70.4473C157.64 71.6217 158.808 72.209 160.326 72.209ZM179.306 46.7715C179.306 44.6374 180.495 43.5703 182.872 43.5703C185.25 43.5703 186.439 44.6374 186.439 46.7715C186.439 47.7884 186.138 48.5833 185.536 49.1562C184.949 49.7148 184.061 49.9941 182.872 49.9941C180.495 49.9941 179.306 48.9199 179.306 46.7715ZM186.138 77H179.585V52.9805H186.138V77ZM204.474 72.209C205.62 72.209 206.995 71.9583 208.599 71.457V76.334C206.966 77.0645 204.961 77.4297 202.583 77.4297C199.962 77.4297 198.05 76.7708 196.847 75.4531C195.658 74.1211 195.064 72.1302 195.064 69.4805V57.9004H191.927V55.1289L195.536 52.9375L197.427 47.8672H201.616V52.9805H208.341V57.9004H201.616V69.4805C201.616 70.4115 201.874 71.099 202.39 71.543C202.92 71.987 203.614 72.209 204.474 72.209ZM220.016 64.9473C220.016 67.3249 220.403 69.1224 221.176 70.3398C221.964 71.5573 223.239 72.166 225.001 72.166C226.748 72.166 228.001 71.5645 228.76 70.3613C229.534 69.1439 229.921 67.3392 229.921 64.9473C229.921 62.5697 229.534 60.7865 228.76 59.5977C227.987 58.4089 226.719 57.8145 224.958 57.8145C223.21 57.8145 221.95 58.4089 221.176 59.5977C220.403 60.7721 220.016 62.5553 220.016 64.9473ZM236.624 64.9473C236.624 68.8574 235.592 71.9154 233.53 74.1211C231.467 76.3268 228.596 77.4297 224.915 77.4297C222.609 77.4297 220.575 76.9284 218.813 75.9258C217.051 74.9089 215.698 73.4551 214.753 71.5645C213.807 69.6738 213.335 67.4681 213.335 64.9473C213.335 61.0228 214.359 57.972 216.407 55.7949C218.455 53.6178 221.334 52.5293 225.044 52.5293C227.35 52.5293 229.384 53.0306 231.145 54.0332C232.907 55.0358 234.26 56.4753 235.206 58.3516C236.151 60.2279 236.624 62.4264 236.624 64.9473ZM256.764 52.5293C257.652 52.5293 258.39 52.5938 258.977 52.7227L258.483 58.8672C257.953 58.724 257.308 58.6523 256.549 58.6523C254.458 58.6523 252.825 59.1895 251.651 60.2637C250.491 61.3379 249.911 62.8418 249.911 64.7754V77H243.358V52.9805H248.321L249.287 57.0195H249.61C250.355 55.6732 251.357 54.5918 252.618 53.7754C253.892 52.9447 255.274 52.5293 256.764 52.5293Z" fill="#E5E5E5"/>
<path d="M124.82 104H122.438V92.5781H128.984V94.5625H124.82V97.5078H128.695V99.4844H124.82V104ZM141.586 98.2734C141.586 100.164 141.117 101.617 140.18 102.633C139.242 103.648 137.898 104.156 136.148 104.156C134.398 104.156 133.055 103.648 132.117 102.633C131.18 101.617 130.711 100.159 130.711 98.2578C130.711 96.3568 131.18 94.9062 132.117 93.9062C133.06 92.901 134.409 92.3984 136.164 92.3984C137.919 92.3984 139.26 92.9036 140.188 93.9141C141.12 94.9245 141.586 96.3776 141.586 98.2734ZM133.25 98.2734C133.25 99.5495 133.492 100.51 133.977 101.156C134.461 101.802 135.185 102.125 136.148 102.125C138.081 102.125 139.047 100.841 139.047 98.2734C139.047 95.7005 138.086 94.4141 136.164 94.4141C135.201 94.4141 134.474 94.7396 133.984 95.3906C133.495 96.0365 133.25 96.9974 133.25 98.2734ZM146.375 97.6484H147.156C147.922 97.6484 148.487 97.5208 148.852 97.2656C149.216 97.0104 149.398 96.6094 149.398 96.0625C149.398 95.5208 149.211 95.1354 148.836 94.9062C148.466 94.6771 147.891 94.5625 147.109 94.5625H146.375V97.6484ZM146.375 99.6172V104H143.953V92.5781H147.281C148.833 92.5781 149.982 92.862 150.727 93.4297C151.471 93.9922 151.844 94.849 151.844 96C151.844 96.6719 151.659 97.2708 151.289 97.7969C150.919 98.3177 150.396 98.7266 149.719 99.0234C151.438 101.591 152.557 103.25 153.078 104H150.391L147.664 99.6172H146.375ZM165.664 104L164.836 101.281H160.672L159.844 104H157.234L161.266 92.5312H164.227L168.273 104H165.664ZM164.258 99.25C163.492 96.7865 163.06 95.3932 162.961 95.0703C162.867 94.7474 162.799 94.4922 162.758 94.3047C162.586 94.9714 162.094 96.6198 161.281 99.25H164.258ZM169.719 104V92.5781H172.141V102H176.773V104H169.719ZM178.766 104V92.5781H181.188V102H185.82V104H178.766Z" fill="#E5E5E5"/>
</svg>
