<svg width="150" height="150" viewBox="0 0 150 150" fill="none" xmlns="http://www.w3.org/2000/svg">
<circle cx="75" cy="75" r="75" fill="#B4B4B4"/>
<path d="M95.856 15H54.8841C47.9185 15 42 20.6796 42 27.6433V123.651C42 130.615 47.7933 136.28 54.7589 136.28L95.7982 136.236C102.763 136.236 108.461 130.57 108.461 123.605L108.52 27.6365C108.519 20.6478 102.85 15 95.856 15ZM69.4511 22.5802H81.3381C82.3824 22.5802 83.2329 23.4279 83.2329 24.475C83.2329 25.5221 82.3824 26.3698 81.3381 26.3698H69.4511C68.404 26.3698 67.5563 25.5221 67.5563 24.475C67.5563 23.4279 68.404 22.5802 69.4511 22.5802ZM62.3082 23.1832C63.0105 22.4819 64.2888 22.4723 64.99 23.1832C65.3416 23.5338 65.5497 24.0261 65.5497 24.5289C65.5497 25.0221 65.3416 25.5134 64.99 25.865C64.6404 26.2166 64.1462 26.4237 63.6539 26.4237C63.1521 26.4237 62.6695 26.2166 62.3082 25.865C61.9585 25.5144 61.7591 25.0221 61.7591 24.5289C61.7582 24.0261 61.9585 23.5338 62.3082 23.1832ZM75.0122 132.524C71.8853 132.524 69.3422 129.979 69.3422 126.853C69.3422 123.726 71.8853 121.182 75.0122 121.182C78.139 121.182 80.6821 123.726 80.6821 126.853C80.6821 129.979 78.1381 132.524 75.0122 132.524ZM102.639 117.328H48.6323V33.003H102.639V117.328Z" fill="black"/>
</svg>
