<svg width="150" height="150" viewBox="0 0 150 150" fill="none" xmlns="http://www.w3.org/2000/svg">
<circle cx="75" cy="75" r="75" fill="#B4B4B4"/>
<path d="M116.667 25H33.3334C28.7332 25.0055 25.0055 28.7332 25 33.3334V116.667C25.0055 121.267 28.7332 124.995 33.3334 125H116.667C121.267 124.995 124.995 121.267 125 116.667V33.3334C124.995 28.7332 121.267 25.0055 116.667 25ZM121.667 116.667C121.667 119.428 119.428 121.667 116.667 121.667H33.3334C30.5721 121.667 28.3334 119.428 28.3334 116.667V41.6666H121.667V116.667H121.667ZM121.667 38.3334H28.3334V33.3334C28.3334 30.5721 30.5721 28.3334 33.3334 28.3334H116.667C119.428 28.3334 121.667 30.5721 121.667 33.3334V38.3334H121.667Z" fill="black"/>
<path d="M36.6666 31.6665H35C34.0795 31.6665 33.3334 32.4126 33.3334 33.3331C33.3334 34.2536 34.0795 34.9999 35 34.9999H36.6666C37.5871 34.9999 38.3332 34.2538 38.3332 33.3333C38.3332 32.4128 37.5871 31.6665 36.6666 31.6665Z" fill="black"/>
<path d="M43.9666 31.8C43.5643 31.6166 43.1022 31.6166 42.7 31.8C42.4981 31.8846 42.3121 32.003 42.15 32.15C41.5055 32.8073 41.5055 33.8594 42.15 34.5166C42.3121 34.6637 42.4981 34.7821 42.7 34.8666C43.1035 35.0444 43.5631 35.0444 43.9666 34.8666C44.1686 34.7821 44.3545 34.6637 44.5166 34.5166C45.1612 33.8594 45.1612 32.8073 44.5166 32.15C44.3545 32.003 44.1686 31.8846 43.9666 31.8Z" fill="black"/>
<path d="M50.639 31.7844C50.0136 31.5249 49.2933 31.6692 48.8166 32.15C48.6695 32.3122 48.5511 32.4981 48.4666 32.7C48.2886 33.1036 48.2886 33.5631 48.4666 33.9666C48.5511 34.1686 48.6695 34.3545 48.8166 34.5166C49.4738 35.1612 50.526 35.1612 51.1832 34.5166C51.3302 34.3545 51.4486 34.1686 51.5332 33.9666C51.6265 33.7688 51.6722 33.552 51.6666 33.3333C51.6707 32.6563 51.2644 32.044 50.639 31.7844Z" fill="black"/>
<path d="M115 31.6665H58.3334C57.4128 31.6665 56.6667 32.4126 56.6667 33.3331C56.6667 34.2536 57.4128 34.9997 58.3334 34.9997H115C115.92 34.9997 116.667 34.2536 116.667 33.3331C116.667 32.4126 115.92 31.6665 115 31.6665Z" fill="black"/>
<path d="M50.5883 104.367C50.6641 104.436 50.7467 104.498 50.835 104.552C57.1086 111.222 65.8598 115.003 75.0167 115C84.1735 114.997 92.9221 111.21 99.1917 104.537C99.2745 104.488 99.3526 104.432 99.4251 104.37C99.4797 104.293 99.5278 104.212 99.5684 104.127C111.264 91.4397 111.264 71.9002 99.5684 59.2133L99.5618 59.21C99.5212 59.1248 99.4731 59.0434 99.4184 58.9666C99.3424 58.8959 99.2592 58.8334 99.1702 58.7799C92.8993 52.1155 84.1545 48.3365 75.0036 48.3365C65.8526 48.3365 57.1079 52.1155 50.837 58.7799C50.7479 58.8332 50.6647 58.8959 50.5887 58.9666C50.534 59.0434 50.486 59.1248 50.4454 59.21C38.7497 71.8969 38.7497 91.4364 50.4454 104.123C50.4858 104.208 50.5336 104.29 50.5883 104.367ZM84.0917 110.245C86.6536 107.151 88.5819 103.583 89.7667 99.7449V99.7399C91.8604 100.721 93.8358 101.936 95.6549 103.363C92.3713 106.503 88.4174 108.856 84.0917 110.245ZM97.9551 100.942C95.7372 99.1623 93.3034 97.6699 90.7118 96.5C91.7836 92.1901 92.369 87.7737 92.4567 83.3334H104.915C104.569 89.8028 102.125 95.9836 97.9551 100.942ZM104.915 80H92.4567C92.3688 75.5598 91.7835 71.1432 90.7118 66.8334C93.3032 65.6645 95.737 64.1733 97.9551 62.3951C102.125 67.3522 104.568 73.5317 104.915 80ZM95.6551 59.9651C93.836 61.392 91.8606 62.6076 89.7668 63.5883C88.5827 59.7483 86.6544 56.1787 84.0919 53.0832C88.4174 54.4721 92.3713 56.8252 95.6551 59.9651ZM76.6667 51.9C80.7516 52.9699 84.3649 57.8817 86.6417 64.835C83.4253 65.944 80.0657 66.5832 76.6667 66.7332V51.9ZM76.6667 70.0684C80.3751 69.9295 84.0442 69.2561 87.56 68.0684C88.5055 71.9783 89.0301 75.9783 89.1251 80H76.6667V70.0684ZM76.6667 83.3334H89.1251C89.0299 87.3539 88.5053 91.3528 87.56 95.2617C84.044 94.0752 80.3751 93.4028 76.6667 93.2651V83.3334ZM76.6667 96.6C80.0657 96.7506 83.4253 97.3905 86.6417 98.5C84.3649 105.453 80.7516 110.365 76.6667 111.435V96.6ZM54.345 103.358C56.1647 101.935 58.1401 100.723 60.2333 99.7451V99.7401C61.418 103.578 63.3463 107.146 65.9083 110.24C61.5827 108.851 57.6288 106.498 54.345 103.358ZM73.3335 111.433C69.2485 110.364 65.6352 105.452 63.3585 98.4985C66.5749 97.3895 69.9344 96.7502 73.3335 96.6002V111.433ZM73.3335 93.2651C69.6251 93.4039 65.9561 94.0774 62.4401 95.2651C61.4946 91.3549 60.97 87.3551 60.875 83.3334H73.3335V93.2651ZM73.3335 80H60.875C60.9702 75.9795 61.4948 71.9807 62.4401 68.0717C65.9561 69.2582 69.6251 69.9307 73.3335 70.0684V80ZM73.3335 51.8983V66.7332C69.9344 66.5826 66.5749 65.9428 63.3585 64.8332C65.635 57.8801 69.2483 52.9684 73.3335 51.8983ZM65.9085 53.0783C63.3454 56.1752 61.417 59.7465 60.2335 63.5883V63.5832C58.1397 62.6024 56.1643 61.3869 54.3452 59.9598C57.6288 56.8201 61.5827 54.467 65.9085 53.0783ZM52.045 62.3916C54.2629 64.1709 56.6967 65.6633 59.2883 66.8332C58.2165 71.1432 57.6311 75.5596 57.5434 79.9998H45.085C45.4315 73.5305 47.8747 67.3496 52.045 62.3916ZM57.5434 83.3334C57.6313 87.7737 58.2167 92.1903 59.2883 96.5C56.6969 97.669 54.2631 99.1602 52.045 100.938C47.8752 95.9813 45.4323 89.8016 45.085 83.3332H57.5434V83.3334Z" fill="black"/>
</svg>
